Poster: http://cdn.piczend.com/image/tynqct2bmlgohinwkb0dswh6q.jpeg
Release date: 2012
Genre: Action, Crime, Thriller
Plot: After watching their respective partners die, a cop and a hitman form an alliance in order to bring down their common enemy.
--------------------------------
Runtime: 1 h 31 min
Rating: 7.1/10
Votes: 1,041
Writer(s)/Director(s): Alessandro Camon, Alexis Nolent/Walter Hill
Actors: Sylvester Stallone, Jason Momoa, Christian Slater, Sarah Shahi
Trailer: http://www.imdb.com/video/imdb/vi3274089497/

Screenshots: 
http://cdn.piczend.com/image/8qxpc2kdtovayqnqz6xracs0y.jpeg 
http://cdn.piczend.com/image/k6ool7n2utumex6ij6gajmzgk.jpeg 
http://cdn.piczend.com/image/h6mzxbatppvmtnhnith5qpfmv.jpeg 
http://cdn.piczend.com/image/fm8usibpl1cm1lchgp0umds6k.jpeg

Mediainfo:
General
Complete name :	Bullet to the Head (2012) Cam x264 [Zend]
Format :	MPEG-4
Format profile :	Base Media
Codec ID :	isom
File size :	1 006 MiB
Duration :	1h 26mn
Overall bit rate :	1 632 Kbps
Writing application :	Lavf53.21.1

Video
ID :	1
Format :	AVC
Format/Info :	Advanced Video Codec
Format profile :	Main@L3.0
Format settings, CABAC :	Yes
Format settings, ReFrames :	3 frames
Codec ID :	avc1
Codec ID/Info :	Advanced Video Coding
Duration :	1h 26mn
Bit rate :	1 500 Kbps
Width :	640 pixels
Height :	336 pixels
Display aspect ratio :	1.905
Frame rate mode :	Constant
Frame rate :	29.970 fps
Color space :	YUV
Chroma subsampling :	4:2:0
Bit depth :	8 bits
Scan type :	Progressive
Bits/(Pixel*Frame) :	0.233
Stream size :	925 MiB (92%)
Writing library :	x264 core 123 r2189 35cf912
Encoding settings :	cabac=1 / ref=3 / deblock=1:0:0 / analyse=0x1:0x111 / me=hex / subme=7 / psy=1 / psy_rd=1.00:0.00 / mixed_ref=0 / me_range=16 / chroma_me=1 / trellis=1 / 8x8dct=0 / cqm=0 / deadzone=21,11 / fast_pskip=1 / chroma_qp_offset=-2 / threads=6 / sliced_threads=0 / nr=0 / decimate=1 / interlaced=0 / bluray_compat=0 / constrained_intra=0 / bframes=3 / b_pyramid=0 / b_adapt=1 / b_bias=0 / direct=1 / weightb=0 / open_gop=1 / weightp=2 / keyint=250 / keyint_min=25 / scenecut=40 / intra_refresh=0 / rc_lookahead=40 / rc=abr / mbtree=1 / bitrate=1500 / ratetol=1.0 / qcomp=0.60 / qpmin=0 / qpmax=69 / qpstep=4 / ip_ratio=1.25 / aq=1:1.00

Audio
ID :	2
Format :	MPEG Audio
Format version :	Version 1
Format profile :	Layer 3
Mode :	Joint stereo
Codec ID :	6B
Duration :	1h 26mn
Bit rate mode :	Constant
Bit rate :	128 Kbps
Channel(s) :	2 channels
Sampling rate :	44.1 KHz
Compression mode :	Lossy
Delay relative to video :	33ms
Stream size :	78.9 MiB (8%)
Writing library :	LAME3.99.5
